# xmcd CD database file
#
# Track frame offsets:
#	150
#	17405
#	37313
#	53955
#	70700
#	90205
#	102478
#	119205
#	137420
#	148820
#	163265
#	177053
#	190458
#	203138
#	217608
#
# Disc length: 3133 seconds
#
# Revision: 0
# Processed by: cddbd v1.5.1PL0 Copyright (c) Steve Scherf et al.
# Submitted via: CDex 1.50beta8
#
DISCID=d80c3b0f
DTITLE=Various Artist - Folk and New Music History (日本コロムビア編) Vol.1
DYEAR=1999
DGENRE=Folk
TTITLE0=ザ・ダーツ／ケメ子の歌 (1968)
TTITLE1=ジャックス／時計をとめて (1968)
TTITLE2=マイケルズ／坊や大きくならなで (1968)
TTITLE3=新谷のり子・古賀 力／フランシーヌの場合 (1969)
TTITLE4=大塚まさじ／プカプカ (1980)
TTITLE5=ベッツイ and クリス／白い色は恋人の色 (1969)
TTITLE6=ウッディ・ウー／今はもうだれも (1969)
TTITLE7=三上 寛／夢は夜ひらく (1973)
TTITLE8=あのねのね／赤とんぼの唄 (1972)
TTITLE9=岡林信康／俺らいちぬけた (1976)
TTITLE10=やまがたすみこ／風に吹かれて行こう (1972)
TTITLE11=ダ・カーポ／結婚するって本当ですか (1974)
TTITLE12=佐井好子／春の夢 (1977)
TTITLE13=ミス花子／河内のオッサンの唄 (1976)
TTITLE14=ブレッド and バター／マリエ (1975)
EXTD=YEAR: 1999
EXTT0=
EXTT1=
EXTT2=
EXTT3=
EXTT4=
EXTT5=
EXTT6=
EXTT7=
EXTT8=
EXTT9=
EXTT10=
EXTT11=
EXTT12=
EXTT13=
EXTT14=
PLAYORDER=
